<svg width="235" height="64" viewBox="0 0 235 64" fill="none" xmlns="http://www.w3.org/2000/svg"><path d="M43.01 5.075c0-1.622 1.327-2.94 2.96-2.94a2.952 2.952 0 012.958 2.94c0 4.41-1.796 8.4-4.708 11.282a16.04 16.04 0 01-11.355 4.679 16.02 16.02 0 01-11.354-4.679c-2.912-2.893-4.708-6.872-4.708-11.282a2.951 2.951 0 012.959-2.94 2.951 2.951 0 012.958 2.94 10.02 10.02 0 002.971 7.129 10.176 10.176 0 007.186 2.951c2.806 0 5.343-1.131 7.174-2.951a10.01 10.01 0 002.96-7.13z" fill="#2D3735"/><path fill-rule="evenodd" clip-rule="evenodd" d="M32.865 0c2.76 0 4.99 2.217 4.99 4.959 0 2.741-2.23 4.958-4.99 4.958-2.76 0-4.99-2.217-4.99-4.958 0-2.742 2.23-4.959 4.99-4.959z" fill="#00D89E"/><path d="M43.01 58.745c0 1.622 1.327 2.94 2.96 2.94 1.631 0 2.958-1.319 2.958-2.94 0-4.41-1.796-8.4-4.708-11.282a16.04 16.04 0 00-11.355-4.68 16.02 16.02 0 00-11.354 4.68c-2.912 2.893-4.708 6.883-4.708 11.282a2.951 2.951 0 002.959 2.94 2.952 2.952 0 002.958-2.94c0-2.789 1.14-5.309 2.971-7.14a10.176 10.176 0 017.186-2.952c2.806 0 5.343 1.131 7.174 2.951a10.057 10.057 0 012.96 7.14z" fill="#2D3735"/><path fill-rule="evenodd" clip-rule="evenodd" d="M32.865 63.82c2.76 0 4.99-2.217 4.99-4.959 0-2.742-2.23-4.958-4.99-4.958-2.76 0-4.99 2.216-4.99 4.958s2.23 4.959 4.99 4.959z" fill="#00D89E"/><path d="M60.611 42.002c1.632 0 2.959 1.319 2.959 2.94 0 1.622-1.327 2.94-2.959 2.94a16.02 16.02 0 01-11.354-4.678c-2.912-2.894-4.709-6.872-4.709-11.282s1.797-8.4 4.709-11.283a16.04 16.04 0 0111.354-4.678c1.632 0 2.959 1.318 2.959 2.94 0 1.622-1.327 2.94-2.959 2.94a10.148 10.148 0 00-7.174 2.952 10.047 10.047 0 00-2.97 7.14 10.02 10.02 0 002.97 7.129 10.208 10.208 0 007.174 2.94z" fill="#2D3735"/><path fill-rule="evenodd" clip-rule="evenodd" d="M65.719 31.91c0 2.742-2.231 4.96-4.99 4.96-2.76 0-4.99-2.218-4.99-4.96 0-2.741 2.23-4.958 4.99-4.958 2.759 0 4.99 2.217 4.99 4.958z" fill="#00D89E"/><path d="M5.108 42.002c-1.632 0-2.96 1.319-2.96 2.94 0 1.622 1.328 2.94 2.96 2.94a16.02 16.02 0 0011.354-4.678c2.912-2.894 4.709-6.872 4.709-11.282s-1.797-8.4-4.709-11.283a16.041 16.041 0 00-11.354-4.678c-1.632 0-2.96 1.318-2.96 2.94 0 1.622 1.328 2.94 2.96 2.94a10.15 10.15 0 017.174 2.952 10.047 10.047 0 012.97 7.14 10.02 10.02 0 01-2.97 7.129 10.187 10.187 0 01-7.174 2.94z" fill="#2D3735"/><path fill-rule="evenodd" clip-rule="evenodd" d="M0 31.91c0 2.742 2.23 4.96 4.99 4.96 2.76 0 4.99-2.218 4.99-4.96 0-2.741-2.23-4.958-4.99-4.958-2.76 0-4.99 2.217-4.99 4.958z" fill="#00D89E"/><path d="M90.283 48.163V22.95l4.638-.782v8.54c.375-.116.833-.268 1.362-.373a6.36 6.36 0 011.397-.152c1.315 0 2.419.187 3.276.56.869.409 1.585.934 2.114 1.646.528.711.904 1.575 1.127 2.543.223 1.015.34 2.1.34 3.302v9.929h-4.638v-9.334c0-1.645-.188-2.847-.563-3.559-.376-.711-1.092-1.085-2.15-1.085-.41 0-.833.035-1.244.152-.41.117-.751.187-1.021.257v13.569h-4.638zm25.949-3.29c.493 0 .986 0 1.468-.035.493 0 .904-.035 1.244-.07v-4.049c-.305-.035-.681-.117-1.092-.152-.411-.035-.833-.035-1.174-.035-.493 0-.939.035-1.397.07a4.47 4.47 0 00-1.174.339c-.341.151-.646.373-.834.641-.188.257-.305.642-.305 1.085 0 .782.305 1.354.904 1.692.622.327 1.409.514 2.36.514zm-.423-14.771c1.468 0 2.677.151 3.664.49.939.338 1.738.828 2.301 1.423a5.967 5.967 0 011.245 2.252c.27.898.376 1.913.376 2.998v10.49c-.681.151-1.703.338-3.018.524-1.315.187-2.83.304-4.485.304a15.09 15.09 0 01-3.053-.304c-.94-.186-1.738-.525-2.372-1.015-.646-.455-1.174-1.05-1.503-1.796-.341-.712-.528-1.61-.528-2.696 0-1.015.187-1.878.598-2.59a4.686 4.686 0 011.621-1.691 7.699 7.699 0 012.336-.934c.869-.187 1.809-.257 2.748-.257 1.209 0 2.266.117 3.205.304v-.56c0-.864-.258-1.61-.833-2.205-.564-.56-1.503-.864-2.865-.864-.869 0-1.738.07-2.525.187-.833.117-1.503.257-1.996.455l-.646-3.71c.564-.187 1.398-.373 2.454-.56a21.433 21.433 0 013.276-.245zm27.417 17.314c-.07.035-.223.152-.493.257-.27.116-.646.256-1.057.373-.411.152-.939.257-1.55.373-.645.117-1.315.152-2.113.152-2.149 0-3.699-.642-4.673-1.913-.987-1.237-1.468-3.069-1.468-5.508V26.194h-4.908v-3.827h9.546v19.111c0 1.202.223 2.019.716 2.439a2.755 2.755 0 001.808.641c.94 0 1.703-.116 2.337-.373.646-.257 1.057-.408 1.245-.49l.61 3.722zm8.572.747c-1.127-2.205-2.266-4.83-3.429-7.83a117.084 117.084 0 01-3.358-9.776h4.861c.223.933.493 1.948.834 3.033.305 1.085.646 2.135.986 3.22a67.71 67.71 0 001.092 3.185 57.548 57.548 0 001.022 2.812c.34-.863.681-1.797 1.092-2.812.411-1.015.786-2.1 1.209-3.185.376-1.085.752-2.135 1.127-3.22.341-1.085.646-2.1.869-3.033h4.709c-1.057 3.558-2.231 6.825-3.511 9.777-1.28 2.998-2.489 5.623-3.617 7.829h-3.886zm21.006-3.29c.493 0 .986 0 1.468-.035.493 0 .904-.035 1.244-.07v-4.049c-.305-.035-.681-.117-1.092-.152-.411-.035-.833-.035-1.174-.035-.493 0-.939.035-1.397.07a4.47 4.47 0 00-1.174.339c-.341.151-.646.373-.834.641-.188.257-.305.642-.305 1.085 0 .782.305 1.354.904 1.692.622.327 1.409.514 2.36.514zm-.423-14.771c1.468 0 2.677.151 3.664.49.939.338 1.737.828 2.301 1.423a5.967 5.967 0 011.245 2.252c.27.898.375 1.913.375 2.998v10.49c-.681.151-1.702.338-3.017.524a32.09 32.09 0 01-4.486.304c-1.127 0-2.148-.117-3.052-.304-.94-.186-1.738-.525-2.372-1.015-.646-.455-1.174-1.05-1.503-1.796-.341-.712-.529-1.61-.529-2.696 0-1.015.188-1.878.599-2.59a4.686 4.686 0 011.621-1.691 7.699 7.699 0 012.336-.934c.869-.187 1.808-.257 2.748-.257 1.209 0 2.266.117 3.205.304v-.56c0-.864-.258-1.61-.833-2.205-.564-.56-1.503-.864-2.865-.864-.869 0-1.738.07-2.525.187-.834.117-1.503.257-1.996.455l-.646-3.71c.564-.187 1.397-.373 2.454-.56a21.433 21.433 0 013.276-.245zm22.638 15.109c0 1.085-.34 1.949-1.021 2.509-.681.56-1.468.863-2.337.863a3.6 3.6 0 01-1.28-.222 2.869 2.869 0 01-1.056-.676c-.341-.257-.564-.642-.752-1.05a3.307 3.307 0 01-.305-1.424c0-.525.117-1.015.305-1.423.188-.408.411-.747.752-1.015.305-.257.645-.49 1.056-.642a3.648 3.648 0 011.28-.222c.869 0 1.656.304 2.337.864.681.56 1.021 1.388 1.021 2.438zm11.425-10.839h-4.039v-3.827h4.039v-4.422l4.638-.746v5.168h7.433v3.827h-7.433v7.117c0 .642.07 1.167.188 1.575.117.409.305.712.528.934.223.221.493.373.834.455.34.07.681.116 1.092.116.411 0 .834 0 1.209-.035.341-.035.717-.07 1.057-.151.341-.035.681-.152 1.057-.257.34-.117.751-.303 1.174-.49l.646 3.967c-.869.338-1.773.595-2.748.747a19.461 19.461 0 01-2.9.221c-1.092 0-2.031-.07-2.865-.256-.834-.187-1.55-.525-2.114-1.015-.563-.49-1.021-1.202-1.315-2.136-.305-.898-.458-2.1-.458-3.558v-7.234h-.023zm28.544 12.636c0 1.423-.188 2.625-.528 3.593-.341.934-.834 1.727-1.433 2.322a6.05 6.05 0 01-2.184 1.237c-.868.257-1.773.373-2.747.373-1.21 0-2.337-.151-3.358-.455-1.022-.303-2.032-.677-2.983-1.167l1.433-3.896c.646.338 1.397.676 2.301 1.015.869.303 1.703.455 2.419.455.787 0 1.397-.222 1.808-.677.411-.49.646-1.353.646-2.59V34.36H223.2v-3.826H235v16.474h-.012zm-.563-21.515c0 .899-.306 1.61-.869 2.135-.564.526-1.28.782-2.079.782a2.93 2.93 0 01-2.031-.782c-.563-.525-.869-1.236-.869-2.135 0-.933.306-1.645.869-2.17.564-.525 1.245-.782 2.031-.782.787 0 1.503.257 2.079.782.563.525.869 1.237.869 2.17z" fill="#2D3735"/></svg>