<svg width="8" height="13" viewBox="0 0 8 13" fill="none" xmlns="http://www.w3.org/2000/svg"><path d="M1.93 9.84c-.617 0-1.118.499-1.118 1.112 0 .613.501 1.11 1.118 1.11a6.054 6.054 0 004.29-1.767A5.985 5.985 0 008 6.03a5.977 5.977 0 00-1.78-4.263A6.062 6.062 0 001.93 0C1.313 0 .812.498.812 1.111s.501 1.111 1.118 1.111c1.06 0 2.019.428 2.711 1.116a3.797 3.797 0 010 5.392 3.85 3.85 0 01-2.71 1.11z" fill="#2D3735"/><path fill-rule="evenodd" clip-rule="evenodd" d="M0 6.027c0 1.036.843 1.874 1.886 1.874A1.878 1.878 0 003.77 6.027a1.878 1.878 0 00-1.885-1.874A1.878 1.878 0 000 6.027z" fill="#2D3735"/></svg>