<svg width="8" height="13" viewBox="0 0 8 13" fill="none" xmlns="http://www.w3.org/2000/svg">
<path d="M1.93014 9.84058C1.3134 9.84058 0.812012 10.3388 0.812012 10.9516C0.812012 11.5645 1.3134 12.0626 1.93014 12.0626C3.60733 12.0626 5.12479 11.3881 6.22073 10.2947C7.32111 9.20129 7.99997 7.69788 7.99997 6.03133C7.99997 4.36478 7.32111 2.85695 6.22073 1.76796C5.12035 0.67456 3.60733 0 1.93014 0C1.3134 0 0.812012 0.49821 0.812012 1.11104C0.812012 1.72387 1.3134 2.22207 1.93014 2.22207C2.99059 2.22207 3.94898 2.64973 4.64116 3.33751C5.33333 4.02529 5.76372 4.98201 5.76372 6.03573C5.76372 7.08945 5.33333 8.04177 4.64116 8.72955C3.94898 9.41292 2.99059 9.84058 1.93014 9.84058Z" fill="#2D3735"/>
<path fill-rule="evenodd" clip-rule="evenodd" d="M0 6.02709C0 7.06317 0.843032 7.90085 1.88573 7.90085C2.92843 7.90085 3.77146 7.06317 3.77146 6.02709C3.77146 4.991 2.92843 4.15332 1.88573 4.15332C0.843032 4.15332 0 4.991 0 6.02709Z" fill="#2D3735"/>
</svg>
