<svg width="30" height="30" viewBox="0 0 30 30" fill="none" xmlns="http://www.w3.org/2000/svg"><path d="M18.21 6.27a8.256 8.256 0 011.08 10.335c.18.15.33.315.54.465.3.24.705.54 1.215.885.51.36.84.585.99.705.63.465 1.095.855 1.41 1.17.48.48.9.975 1.26 1.5.375.525.66 1.035.885 1.56.21.525.315 1.02.27 1.5-.03.48-.21.885-.54 1.215-.33.33-.735.51-1.215.54-.465.03-.975-.06-1.485-.285a7.128 7.128 0 01-1.56-.885c-.525-.36-1.02-.78-1.5-1.26-.315-.315-.705-.78-1.155-1.395-.15-.195-.375-.525-.705-.99-.33-.48-.6-.855-.84-1.17-.24-.3-.435-.525-.66-.75a8.254 8.254 0 01-9.66-1.47c-3.21-3.225-3.21-8.46 0-11.67a8.247 8.247 0 0111.67 0zm-2.115 9.54a5.27 5.27 0 000-7.425 5.243 5.243 0 00-7.425 0 5.243 5.243 0 000 7.425 5.243 5.243 0 007.425 0z" fill="#2D3735"/></svg>