<svg width="30" height="30" viewBox="0 0 30 30" fill="none" xmlns="http://www.w3.org/2000/svg">
<circle cx="15" cy="15" r="15" fill="#00D89E"/>
<path fill-rule="evenodd" clip-rule="evenodd" d="M15.0001 9.28711C15.3031 9.28711 15.5938 9.4075 15.808 9.62178C16.0223 9.83607 16.1427 10.1267 16.1427 10.4298V21.8562C16.1427 22.1593 16.0223 22.4499 15.808 22.6642C15.5938 22.8785 15.3031 22.9989 15.0001 22.9989C14.697 22.9989 14.4064 22.8785 14.1921 22.6642C13.9778 22.4499 13.8574 22.1593 13.8574 21.8562V10.4298C13.8574 10.1267 13.9778 9.83607 14.1921 9.62178C14.4064 9.4075 14.697 9.28711 15.0001 9.28711V9.28711Z" fill="white"/>
<path fill-rule="evenodd" clip-rule="evenodd" d="M14.191 7.3357C14.2971 7.22928 14.4232 7.14486 14.562 7.08725C14.7009 7.02965 14.8497 7 15 7C15.1503 7 15.2991 7.02965 15.4379 7.08725C15.5767 7.14486 15.7028 7.22928 15.809 7.3357L22.6649 14.1916C22.8794 14.4061 23 14.6971 23 15.0006C23 15.304 22.8794 15.595 22.6649 15.8096C22.4503 16.0241 22.1593 16.1447 21.8559 16.1447C21.5524 16.1447 21.2614 16.0241 21.0469 15.8096L15 9.76039L8.95309 15.8096C8.84685 15.9158 8.72072 16.0001 8.58192 16.0576C8.44311 16.1151 8.29434 16.1447 8.14409 16.1447C7.99385 16.1447 7.84507 16.1151 7.70627 16.0576C7.56746 16.0001 7.44134 15.9158 7.3351 15.8096C7.22886 15.7033 7.14458 15.5772 7.08709 15.4384C7.02959 15.2996 7 15.1508 7 15.0006C7 14.8503 7.02959 14.7016 7.08709 14.5628C7.14458 14.4239 7.22886 14.2978 7.3351 14.1916L14.191 7.3357V7.3357Z" fill="white"/>
</svg>
