<svg width="30" height="30" viewBox="0 0 30 30" fill="none" xmlns="http://www.w3.org/2000/svg"><circle cx="15" cy="15" r="15" fill="#EE7221"/><path d="M14.548 18.448c-1.308-.136-2.487-.458-3.497-1.248-.126-.098-.255-.193-.37-.303-.441-.424-.486-.91-.136-1.411.3-.43.801-.544 1.323-.298.102.048.198.108.29.171 1.882 1.294 4.468 1.33 6.357.059.187-.144.387-.26.619-.32a.972.972 0 011.113.444c.277.45.273.89-.067 1.24a5.134 5.134 0 01-1.85 1.195c-.66.256-1.382.384-2.098.47.108.117.159.175.226.243.972.976 1.948 1.949 2.917 2.928.33.334.398.747.217 1.136-.199.424-.644.703-1.08.673-.276-.02-.491-.157-.683-.35-.733-.737-1.48-1.462-2.199-2.214-.209-.218-.31-.177-.494.013-.737.76-1.487 1.507-2.241 2.25-.339.335-.742.395-1.134.204-.418-.202-.684-.628-.663-1.057.014-.29.156-.51.355-.71.962-.96 1.92-1.922 2.88-2.884.064-.064.123-.132.215-.23z" fill="#fff"/><path d="M15.345 15.104c-2.334-.008-4.247-1.943-4.234-4.28a4.278 4.278 0 014.285-4.261c2.362.006 4.258 1.938 4.246 4.326-.012 2.332-1.94 4.223-4.297 4.215zm2.121-4.274a2.08 2.08 0 00-2.086-2.086 2.083 2.083 0 00-2.092 2.11 2.08 2.08 0 002.102 2.07 2.076 2.076 0 002.076-2.095z" fill="#fff"/></svg>