<svg width="30" height="30" viewBox="0 0 30 30" fill="none" xmlns="http://www.w3.org/2000/svg">
<circle cx="15" cy="15" r="15" fill="#55ACEE"/>
<path d="M11.2661 19.8001C11.1143 19.6848 10.991 19.6944 10.8771 19.6752C9.53921 19.4349 8.59983 18.6662 8.02102 17.4266C7.90716 17.1768 7.96409 17.1191 8.22977 17.1383C8.60932 17.1575 8.99835 17.2152 9.44432 17.023C8.86551 16.8212 8.3721 16.5906 7.94511 16.2447C7.11011 15.5432 6.71158 14.6303 6.58823 13.5637C6.55977 13.3523 6.64516 13.3042 6.83494 13.3907C7.23346 13.5733 7.65096 13.6886 8.15386 13.7271C7.93562 13.4196 7.65096 13.2466 7.4517 12.9871C6.55977 11.8052 6.40795 10.5272 6.90136 9.14345C7.06266 8.70143 7.11011 8.69182 7.41375 9.03775C8.95091 10.7482 10.8202 11.8917 13.05 12.3914C13.4865 12.4875 13.9419 12.5355 14.3784 12.6028C14.6536 12.6412 14.7864 12.5739 14.7485 12.2376C14.6251 10.9788 14.9952 9.89297 15.9061 9.00892C17.263 7.69246 19.5023 7.65402 20.8971 8.93205C21.0964 9.11462 21.2862 9.17228 21.5424 9.10501C22.0832 8.96088 22.6051 8.76869 23.108 8.51885C23.2124 8.47081 23.3262 8.33628 23.4306 8.43237C23.5445 8.54768 23.4021 8.6726 23.3547 8.78791C23.108 9.30681 22.7379 9.72 22.311 10.0948C22.2635 10.1428 22.1781 10.162 22.1876 10.2773C22.5007 10.3254 22.7854 10.2101 23.07 10.1236C23.3547 10.0467 23.6299 9.95063 23.9904 9.83531C23.6204 10.4311 23.2314 10.9115 22.7474 11.2767C22.3489 11.5746 22.2161 11.9109 22.1971 12.4202C22.1117 15.1204 21.1818 17.5035 19.4074 19.531C17.7279 21.4529 15.612 22.5291 13.1259 22.8846C10.6589 23.2306 8.33415 22.7789 6.18022 21.5009C6.14226 21.4817 6.1138 21.4433 5.98096 21.3279C7.98307 21.424 9.72898 20.9916 11.2661 19.8001Z" fill="white"/>
</svg>
