<svg viewBox="0 0 765.57 765.57" xmlns="http://www.w3.org/2000/svg">
  <path fill="#497FBF"  d="M382.78 765.57c211.46,0 382.79,-171.33 382.79,-382.79 0,-211.45 -171.33,-382.78 -382.79,-382.78 -211.45,0 -382.78,171.33 -382.78,382.78 0,211.46 171.33,382.79 382.78,382.79z"/>
  <path fill="#ffffff" d="M175.15 374.49l369.07 -142.3c17.13,-6.19 32.09,4.18 26.54,30.08l0.03 -0.03 -62.84 296.05c-4.65,20.99 -17.13,26.09 -34.58,16.2l-95.69 -70.52 -46.16 44.46c-5.1,5.11 -9.41,9.41 -19.3,9.41l6.8 -97.38 177.35 -160.23c7.72,-6.8 -1.72,-10.62 -11.89,-3.86l-219.18 137.99 -94.48 -29.47c-20.51,-6.51 -20.96,-20.51 4.33,-30.4l0 0z"/>
</svg>
