<?xml version="1.0" encoding="utf-8"?><svg width="30" height="30" fill="none" xmlns="http://www.w3.org/2000/svg" viewBox="0 0 30 30"><circle cx="15" cy="15" r="15" fill="#EE7221"/><path d="M14.016 19.087c-1.549-.162-2.946-.543-4.142-1.48-.148-.116-.301-.228-.437-.358-.523-.503-.576-1.08-.162-1.673.355-.509.95-.645 1.568-.353.12.057.233.127.343.203 2.229 1.533 5.29 1.575 7.528.069a2.04 2.04 0 01.733-.38c.534-.137 1.032.06 1.318.527.328.534.323 1.055-.08 1.47-.619.635-1.363 1.095-2.19 1.416-.781.303-1.637.456-2.485.557.128.14.188.208.268.288 1.15 1.158 2.307 2.31 3.454 3.47.39.396.472.886.257 1.346-.235.503-.762.834-1.278.798-.327-.022-.583-.185-.81-.414-.868-.874-1.752-1.733-2.603-2.624-.248-.259-.367-.21-.585.015-.874.9-1.762 1.787-2.655 2.668-.4.395-.878.467-1.343.24-.495-.24-.81-.744-.785-1.252.017-.343.186-.605.421-.84 1.139-1.139 2.274-2.28 3.41-3.42.076-.075.146-.156.255-.273z" fill="#fff"/><path d="M14.96 15.123c-2.764-.01-5.03-2.302-5.014-5.073.016-2.8 2.284-5.058 5.075-5.05 2.796.008 5.041 2.297 5.027 5.127-.014 2.765-2.296 5.006-5.088 4.996zm2.512-5.066A2.464 2.464 0 0015 7.585a2.468 2.468 0 00-2.477 2.502 2.464 2.464 0 002.49 2.453 2.46 2.46 0 002.458-2.483z" fill="#fff"/></svg>