<?xml version="1.0" encoding="utf-8"?><svg width="30" height="30" fill="none" xmlns="http://www.w3.org/2000/svg" viewBox="0 0 30 30"><rect width="30" height="30" rx="15" fill="#C434A4"/><path d="M18.36 7.5h-6.72a4.144 4.144 0 00-4.14 4.14v6.72a4.144 4.144 0 004.14 4.14h6.72a4.144 4.144 0 004.14-4.14v-6.72a4.144 4.144 0 00-4.14-4.14zm2.81 10.86a2.812 2.812 0 01-2.81 2.81h-6.72a2.812 2.812 0 01-2.81-2.81v-6.72a2.812 2.812 0 012.81-2.81h6.72a2.812 2.812 0 012.809 2.81v6.72z" fill="#fff"/><path d="M15 11.25A3.754 3.754 0 0011.25 15 3.754 3.754 0 0015 18.75 3.754 3.754 0 0018.75 15 3.754 3.754 0 0015 11.25zm0 6.209A2.462 2.462 0 0112.54 15 2.462 2.462 0 0115 12.541 2.461 2.461 0 0117.459 15a2.462 2.462 0 01-2.46 2.459z" fill="#fff"/><path d="M18.75 10a1.255 1.255 0 00-1.25 1.25c0 .329.134.651.367.884.232.232.555.366.883.366.33 0 .651-.134.884-.366A1.26 1.26 0 0020 11.25c0-.33-.133-.652-.366-.884A1.256 1.256 0 0018.75 10z" fill="#fff"/></svg>