<?xml version="1.0" encoding="utf-8"?><svg width="30" height="30" fill="none" xmlns="http://www.w3.org/2000/svg" viewBox="0 0 30 30"><circle cx="15" cy="15" r="15" fill="#55ACEE"/><path d="M11.266 19.8c-.152-.115-.275-.106-.389-.125-1.338-.24-2.277-1.009-2.856-2.248-.114-.25-.057-.308.209-.289.38.02.768.077 1.214-.115-.578-.202-1.072-.432-1.499-.778-.835-.702-1.233-1.615-1.357-2.681-.028-.212.057-.26.247-.173a3.76 3.76 0 001.319.336c-.218-.307-.503-.48-.702-.74-.892-1.182-1.044-2.46-.55-3.844.16-.442.208-.451.512-.105 1.537 1.71 3.406 2.854 5.636 3.353.436.097.892.145 1.328.212.276.038.408-.03.37-.365-.123-1.26.247-2.345 1.158-3.23 1.357-1.316 3.596-1.354 4.991-.076.2.183.39.24.645.173a8.317 8.317 0 001.566-.586c.104-.048.218-.183.323-.087.113.116-.029.24-.076.356-.247.519-.617.932-1.044 1.307-.047.048-.133.067-.123.182.313.048.597-.067.882-.153.285-.077.56-.173.92-.289-.37.596-.759 1.076-1.243 1.442-.398.298-.53.634-.55 1.143-.085 2.7-1.015 5.083-2.79 7.111-1.68 1.922-3.795 2.998-6.281 3.354-2.467.346-4.792-.106-6.946-1.384-.038-.02-.066-.058-.199-.173 2.002.096 3.748-.336 5.285-1.528z" fill="#fff"/></svg>