<?xml version="1.0" encoding="utf-8"?><svg viewBox="0 0 30 30" xmlns="http://www.w3.org/2000/svg" xmlns:xlink="http://www.w3.org/1999/xlink"><style>:root>svg{display:none}:root>svg:target{display:block}</style><svg fill="none" viewBox="0 0 27 26" id="icon-burger" xmlns="http://www.w3.org/2000/svg"><path fill="#fff" d="M0 0h27v26H0z"/><rect x="5" y="7" width="17" height="2" rx="1" fill="#2D3735"/><rect x="5" y="12" width="17" height="2" rx="1" fill="#2D3735"/><rect x="5" y="17" width="17" height="2" rx="1" fill="#2D3735"/></svg><svg fill="none" viewBox="0 0 27 26" id="icon-close" xmlns="http://www.w3.org/2000/svg"><path fill="#fff" d="M0 0h27v26H0z"/><path d="M6 8l15 10M21 8L6 18" stroke="#2D3735" stroke-width="2" stroke-linecap="round" stroke-linejoin="round"/></svg><svg fill="none" viewBox="0 0 8 13" id="icon-crumb" xmlns="http://www.w3.org/2000/svg"><path d="M1.93 9.84c-.617 0-1.118.499-1.118 1.112 0 .613.501 1.11 1.118 1.11a6.054 6.054 0 004.29-1.767A5.985 5.985 0 008 6.03a5.977 5.977 0 00-1.78-4.263A6.062 6.062 0 001.93 0C1.313 0 .812.498.812 1.111s.501 1.111 1.118 1.111c1.06 0 2.019.428 2.711 1.116a3.797 3.797 0 010 5.392 3.85 3.85 0 01-2.71 1.11z" fill="#2D3735"/><path fill-rule="evenodd" clip-rule="evenodd" d="M0 6.027c0 1.036.843 1.874 1.886 1.874A1.878 1.878 0 003.77 6.027a1.878 1.878 0 00-1.885-1.874A1.878 1.878 0 000 6.027z" fill="#2D3735"/></svg><svg fill="none" viewBox="0 0 30 30" id="icon-fb" xmlns="http://www.w3.org/2000/svg"><path d="M30 15.091C30 6.755 23.286 0 15 0S0 6.755 0 15.091C0 22.624 5.485 28.867 12.656 30V19.454h-3.81V15.09h3.81v-3.325c0-3.782 2.238-5.87 5.666-5.87 1.641 0 3.358.294 3.358.294v3.712h-1.892c-1.863 0-2.444 1.163-2.444 2.357v2.832h4.16l-.666 4.363h-3.494V30C24.514 28.867 30 22.623 30 15.091z" fill="#3B589B"/></svg><svg fill="none" viewBox="0 0 30 30" id="icon-fb-2" xmlns="http://www.w3.org/2000/svg"><path fill="#fff" d="M5 6h19v18H5z"/><path d="M15 0C6.716 0 0 6.716 0 15c0 8.284 6.716 15 15 15 8.284 0 15-6.716 15-15 0-8.284-6.716-15-15-15zm3.553 10.366h-2.255c-.267 0-.564.351-.564.818v1.629h2.82l-.426 2.321h-2.394v6.97h-2.66v-6.97h-2.415v-2.322h2.414v-1.365c0-1.96 1.36-3.552 3.225-3.552h2.255v2.47z" fill="#3B589B"/></svg><svg fill="none" viewBox="0 0 30 30" id="icon-in" xmlns="http://www.w3.org/2000/svg"><rect width="30" height="30" rx="15" fill="#C434A4"/><path d="M18.36 7.5h-6.72a4.144 4.144 0 00-4.14 4.14v6.72a4.144 4.144 0 004.14 4.14h6.72a4.144 4.144 0 004.14-4.14v-6.72a4.144 4.144 0 00-4.14-4.14zm2.81 10.86a2.812 2.812 0 01-2.81 2.81h-6.72a2.812 2.812 0 01-2.81-2.81v-6.72a2.812 2.812 0 012.81-2.81h6.72a2.812 2.812 0 012.809 2.81v6.72z" fill="#fff"/><path d="M15 11.25A3.754 3.754 0 0011.25 15 3.754 3.754 0 0015 18.75 3.754 3.754 0 0018.75 15 3.754 3.754 0 0015 11.25zm0 6.209A2.462 2.462 0 0112.54 15 2.462 2.462 0 0115 12.541 2.461 2.461 0 0117.459 15a2.462 2.462 0 01-2.46 2.459z" fill="#fff"/><path d="M18.75 10a1.255 1.255 0 00-1.25 1.25c0 .329.134.651.367.884.232.232.555.366.883.366.33 0 .651-.134.884-.366A1.26 1.26 0 0020 11.25c0-.33-.133-.652-.366-.884A1.256 1.256 0 0018.75 10z" fill="#fff"/></svg><svg fill="none" viewBox="0 0 30 30" id="icon-ok" xmlns="http://www.w3.org/2000/svg"><circle cx="15" cy="15" r="15" fill="#EE7221"/><path d="M14.548 18.448c-1.308-.136-2.487-.458-3.497-1.248-.126-.098-.255-.193-.37-.303-.441-.424-.486-.91-.136-1.411.3-.43.801-.544 1.323-.298.102.048.198.108.29.171 1.882 1.294 4.468 1.33 6.357.059.187-.144.387-.26.619-.32.45-.116.871.05 1.113.444.277.45.273.89-.067 1.24a5.134 5.134 0 01-1.85 1.195c-.66.256-1.382.384-2.098.47.108.117.159.175.226.243.972.976 1.948 1.949 2.917 2.928.33.334.398.747.217 1.136-.199.424-.644.703-1.08.673-.276-.02-.491-.157-.683-.35-.733-.737-1.48-1.462-2.199-2.214-.209-.218-.31-.177-.494.013-.737.76-1.487 1.507-2.241 2.25-.339.335-.742.395-1.134.204-.418-.202-.684-.628-.663-1.057.014-.29.156-.51.355-.71.962-.96 1.92-1.922 2.88-2.884.064-.064.123-.132.215-.23z" fill="#fff"/><path d="M15.345 15.104c-2.334-.008-4.247-1.943-4.234-4.28a4.278 4.278 0 014.285-4.261c2.362.006 4.258 1.938 4.246 4.326-.012 2.332-1.94 4.223-4.297 4.215zm2.121-4.274a2.08 2.08 0 00-2.086-2.086 2.083 2.083 0 00-2.092 2.11 2.08 2.08 0 002.102 2.07 2.076 2.076 0 002.076-2.095z" fill="#fff"/></svg><svg fill="none" viewBox="0 0 30 30" id="icon-ok-2" xmlns="http://www.w3.org/2000/svg"><circle cx="15" cy="15" r="15" fill="#EE7221"/><path d="M14.016 19.087c-1.549-.162-2.946-.543-4.142-1.48-.148-.116-.301-.228-.437-.358-.523-.503-.576-1.08-.162-1.673.355-.509.95-.645 1.568-.353.12.057.233.127.343.203 2.229 1.533 5.29 1.575 7.528.069a2.04 2.04 0 01.733-.38c.534-.137 1.032.06 1.318.527.328.534.323 1.055-.08 1.47-.619.635-1.363 1.095-2.19 1.416-.781.303-1.637.456-2.485.557.128.14.188.208.268.288 1.15 1.158 2.307 2.31 3.454 3.47.39.396.472.886.257 1.346-.235.503-.762.834-1.278.798-.327-.022-.583-.185-.81-.414-.868-.874-1.752-1.733-2.603-2.624-.248-.259-.367-.21-.585.015-.874.9-1.762 1.787-2.655 2.668-.4.395-.878.467-1.343.24-.495-.24-.81-.744-.785-1.252.017-.343.186-.605.421-.84 1.139-1.139 2.274-2.28 3.41-3.42.076-.075.146-.156.255-.273z" fill="#fff"/><path d="M14.96 15.123c-2.764-.01-5.03-2.302-5.014-5.073.016-2.8 2.284-5.058 5.075-5.05 2.796.008 5.041 2.297 5.027 5.127-.014 2.765-2.296 5.006-5.088 4.996zm2.512-5.066A2.464 2.464 0 0015 7.585a2.468 2.468 0 00-2.477 2.502 2.464 2.464 0 002.49 2.453 2.46 2.46 0 002.458-2.483z" fill="#fff"/></svg><svg fill="none" viewBox="0 0 30 30" id="icon-search" xmlns="http://www.w3.org/2000/svg"><path d="M18.21 6.27a8.256 8.256 0 011.08 10.335c.18.15.33.315.54.465.3.24.705.54 1.215.885.51.36.84.585.99.705.63.465 1.095.855 1.41 1.17.48.48.9.975 1.26 1.5.375.525.66 1.035.885 1.56.21.525.315 1.02.27 1.5-.03.48-.21.885-.54 1.215-.33.33-.735.51-1.215.54-.465.03-.975-.06-1.485-.285a7.128 7.128 0 01-1.56-.885c-.525-.36-1.02-.78-1.5-1.26-.315-.315-.705-.78-1.155-1.395-.15-.195-.375-.525-.705-.99-.33-.48-.6-.855-.84-1.17-.24-.3-.435-.525-.66-.75a8.254 8.254 0 01-9.66-1.47c-3.21-3.225-3.21-8.46 0-11.67a8.247 8.247 0 0111.67 0zm-2.115 9.54a5.27 5.27 0 000-7.425 5.243 5.243 0 00-7.425 0 5.243 5.243 0 000 7.425 5.243 5.243 0 007.425 0z" fill="#2D3735"/></svg><svg fill="none" viewBox="0 0 30 30" id="icon-top" xmlns="http://www.w3.org/2000/svg"><circle cx="15" cy="15" r="15" fill="#00D89E"/><path fill-rule="evenodd" clip-rule="evenodd" d="M15 9.287a1.142 1.142 0 011.143 1.143v11.426a1.143 1.143 0 11-2.286 0V10.43A1.143 1.143 0 0115 9.287z" fill="#fff"/><path fill-rule="evenodd" clip-rule="evenodd" d="M14.191 7.336a1.142 1.142 0 011.618 0l6.856 6.856a1.144 1.144 0 01-1.618 1.618L15 9.76l-6.047 6.05a1.145 1.145 0 01-1.618-1.618l6.856-6.856z" fill="#fff"/></svg><svg fill="none" viewBox="0 0 30 30" id="icon-vk" xmlns="http://www.w3.org/2000/svg"><path d="M15 0C6.715 0 0 6.716 0 15c0 8.284 6.715 15 15 15 8.284 0 15-6.716 15-15 0-8.284-6.716-15-15-15zm5.769 16.923s1.326 1.31 1.653 1.918c.01.012.014.025.017.03.133.224.164.398.098.527-.109.216-.484.322-.612.332H19.58c-.162 0-.503-.043-.915-.327-.318-.222-.63-.586-.935-.94-.455-.529-.848-.985-1.245-.985-.05 0-.1.008-.149.024-.3.096-.684.525-.684 1.665 0 .356-.281.561-.48.561H14.1c-.366 0-2.27-.128-3.958-1.908-2.066-2.18-3.925-6.551-3.94-6.592-.118-.283.124-.434.388-.434h2.368c.315 0 .418.192.49.362.085.199.394.988.902 1.875.823 1.447 1.328 2.035 1.733 2.035a.47.47 0 00.217-.057c.528-.293.43-2.176.406-2.567 0-.073-.001-.842-.272-1.21-.193-.268-.523-.37-.723-.407a.86.86 0 01.31-.264c.363-.181 1.016-.208 1.665-.208h.36c.704.01.885.055 1.14.119.515.123.526.456.481 1.595-.014.324-.028.69-.028 1.12 0 .094-.005.194-.005.3-.015.58-.034 1.238.375 1.508a.337.337 0 00.178.052c.143 0 .57 0 1.73-1.99.358-.64.668-1.305.93-1.99.023-.04.092-.165.173-.214a.416.416 0 01.194-.045h2.783c.303 0 .51.045.55.162.069.186-.013.753-1.283 2.474l-.567.748c-1.152 1.51-1.152 1.586.072 2.731z" fill="#497FBF"/></svg><svg fill="none" viewBox="0 0 30 30" id="icon-vk-2" xmlns="http://www.w3.org/2000/svg"><path fill="#fff" d="M5 8h19v14H5z"/><path d="M15 0C6.716 0 0 6.716 0 15c0 8.284 6.716 15 15 15 8.284 0 15-6.716 15-15 0-8.284-6.716-15-15-15zm5.769 16.923s1.326 1.31 1.653 1.918c.01.012.014.025.017.03.133.224.164.398.099.527-.11.216-.485.322-.613.332h-2.344c-.162 0-.503-.043-.915-.327-.318-.222-.63-.586-.935-.94-.454-.529-.848-.985-1.245-.985-.05 0-.1.008-.149.024-.3.096-.684.525-.684 1.665 0 .356-.281.561-.48.561H14.1c-.366 0-2.27-.128-3.958-1.908-2.065-2.18-3.925-6.551-3.94-6.592-.118-.283.125-.434.389-.434h2.367c.315 0 .419.192.49.362.085.199.394.988.902 1.875.823 1.447 1.328 2.035 1.733 2.035a.47.47 0 00.217-.057c.528-.293.43-2.176.406-2.567 0-.073-.001-.842-.272-1.21-.193-.268-.523-.37-.723-.407a.86.86 0 01.31-.264c.363-.181 1.016-.208 1.665-.208h.36c.704.01.885.055 1.14.119.516.123.527.456.481 1.595a24.79 24.79 0 00-.028 1.12c0 .094-.005.194-.005.3-.015.58-.034 1.238.375 1.508a.337.337 0 00.178.052c.143 0 .57 0 1.73-1.99.358-.64.668-1.305.93-1.99.023-.04.092-.165.173-.214a.417.417 0 01.194-.045h2.783c.303 0 .51.045.55.162.069.186-.013.753-1.283 2.474l-.567.748c-1.152 1.51-1.152 1.586.072 2.731z" fill="#497FBF"/></svg></svg>